<svg xmlns="http://www.w3.org/2000/svg" viewBox="0 0 50 50" class="fill-current"><path d="M7.006 7a1 1 0 0 0-.924 1.395l11.18 26a1 1 0 0 0 1.814.052l4.79-9.58 9.581-4.797a1 1 0 0 0-.052-1.812l-26-11.176A1 1 0 0 0 7.005 7zM29 10c-2.079 0-4.125.589-5.965 1.627l2.442 1.049A9.842 9.842 0 0 1 29 12c6.168 0 11 4.832 11 11 0 .486-.05 1.49-.104 1.926l-.14 1.125h1.133l.086-.004C44.787 26.062 48 29.286 48 33.1c0 3.805-3.097 6.9-6.902 6.9H9.67C5.44 40 2 36.56 2 32.33a7.685 7.685 0 0 1 5.627-7.385l.762-.209-.041-1.004c0-1.07.344-2.058.918-2.873l-.883-2.05a6.985 6.985 0 0 0-2.02 4.445C2.58 24.63 0 28.259 0 32.33 0 37.662 4.338 42 9.67 42h31.428C46.007 42 50 38.008 50 33.1c0-4.563-3.585-8.47-8.033-8.995.02-.408.033-.82.033-1.105 0-7.29-5.71-13-13-13zm-17.611.975l19.24 8.271-7.31 3.658-11.93-11.93zm-1.414 1.414l11.93 11.93-3.655 7.31-8.275-19.24z"/></svg>
