<svg xmlns="http://www.w3.org/2000/svg" viewBox="0 0 338 78"><path d="M34.576 43.32h11.048v33.354s-26.674 5.55-40.488-20.31h12.718s5.574 8.56 16.722 9.395v-22.44zM8.232 16.809C18.712-.678 42.146.575 42.146.575c31.012 2.126 35.63 30.114 35.63 30.114H13.231c-4.999 9.669 2.195 22.67 2.195 22.67H3.422c-7.238-19.204 2.144-33.767 2.144-33.767H59.82c-18.146-17.54-36.96-2.783-36.96-2.783H8.231zm40.87 48.349c16.862-5.601 18.573-22.255 18.573-22.255h11.2C74.063 71.77 49.104 76.258 49.104 76.258v-11.1zm-9.05-22.717c-3.096 0-5.621-2.408-5.621-5.412 0-3.01 2.525-5.465 5.62-5.465 3.05 0 5.573 2.456 5.573 5.465 0 3.004-2.524 5.412-5.573 5.412zM87.13 63.67c5.76-1.247 5.521-5.04 5.521-5.04.334-2.91.096-17.339.096-17.339h3.569V59.51C95.174 66.308 87.13 67 87.13 67v-3.329zm10.758 2.678c1.236-11.602 5.286-17.843 8.9-21.17v6.101a17.379 17.379 0 0 0-2.663 4.95h2.662v3.837H102.6c-1.19 3.834-1.096 6.282-1.096 6.282h-3.616zm8.9-21.17c3.526-3.188 6.714-3.702 6.714-3.702V66.35h-4.048v-6.282h-2.667V56.23h2.667V48.55s-1.236.926-2.667 2.73v-6.1zm9.477-4.119h3.996c.812.051 1.525.139 2.19.326v3.928c-.665-.277-1.478-.463-2.52-.502v9.709s1.237 0 2.52-.605v8.464c-1.478-1.665-2.093-3.242-2.093-3.242-.38.144-.478.052-.478.052v7.027h-3.615V41.06zm6.186.326c5.615 1.53 6.142 7.3 6.142 7.3.378 6.108-4.81 8.74-4.81 8.74 1.287 4.166 5.522 5.318 5.522 5.318v3.473c-3.236-.518-5.47-2.223-6.854-3.837v-8.464c1.287-.651 2.619-1.99 2.477-4.853 0 0-.099-2.594-2.477-3.749v-3.928zm12.808-.326v25.291h-3.854v-25.29h3.854zm3.14 0h4.043c.811.051 1.527.139 2.144.326v3.928c-.668-.326-1.475-.502-2.526-.55v9.757s1.288 0 2.526-.605v8.508c-1.475-1.71-2.096-3.331-2.096-3.331-.378.189-.473.097-.473.097v7.027H138.4V41.06zm6.187.326c5.618 1.482 6.14 7.3 6.14 7.3.381 6.063-4.808 8.695-4.808 8.695 1.286 4.162 5.523 5.321 5.523 5.321v3.515c-3.237-.518-5.43-2.223-6.855-3.793v-8.508c1.332-.651 2.666-2.034 2.52-4.898 0 0-.088-2.549-2.52-3.704v-3.928zm65.74 12.345c0 5.176 4.334 9.432 9.665 9.432h.043v3.564c-7.327 0-13.23-5.828-13.23-12.902 0-7.167 5.903-12.993 13.23-12.993v3.42h-.043c-5.33 0-9.664 4.257-9.664 9.48zm9.708-9.479v-3.42c7.332 0 13.284 5.826 13.284 12.993 0 7.116-5.952 12.902-13.284 12.902v-3.564c5.332 0 9.67-4.256 9.67-9.432 0-5.222-4.338-9.431-9.67-9.479zm-37.316 9.34c0 5.176 4.332 9.435 9.712 9.435v3.558c-7.286 0-13.236-5.832-13.236-12.945 0-7.17 5.95-12.948 13.236-12.948v3.379c-5.38.044-9.712 4.248-9.712 9.52zm9.712-9.521v-3.38c7.33 0 13.278 5.778 13.278 12.949 0 7.113-5.947 12.945-13.278 12.945v-3.558c5.328 0 9.656-4.259 9.656-9.435 0-5.273-4.328-9.521-9.656-9.521zm47.124 13.82v8.14h-3.662V41.293h3.283v10.402s5.76-.275 7.47-10.402h3.335s1.095 7.307-7.564 13.366c0 0 3.898 7.949 8.276 8.085v3.476s-6.617-.331-10.614-8.328h-.524zm14.23 3.147c3.525 1.989 5.813 1.248 5.813 1.248 2.712-.974 2.853-3.702 2.853-3.702.336-3.004-2.28-3.699-2.28-3.699-2.86-1.108-4.86-2.672-4.86-2.672-2.713-2.737-2.238-5.514-2.238-5.514.62-4.53 4.62-5.683 4.62-5.683 4.475-1.475 6.19.742 6.19.742l-.476 3.557c-1.477-1.429-3.956-.97-3.956-.97-4.853 2.354-1.519 5.13-1.519 5.13 1.999 1.388 5.425 2.869 5.425 2.869 3.336 2.678 2.954 6.563 2.954 6.563-.713 6.843-7.52 7.401-7.52 7.401-2.767.367-5.332-1.57-5.332-1.57l.327-3.7zm13.054-14.935l-1.77-3.427c4.378-2.63 8.378-2.588 8.378-2.588 7.093.422 8.143 2.733 8.143 2.733l-1.05 3.374c-2.853-2.22-4.95-1.986-4.95-1.986v21.588h-3.996V44.3c-2.48.049-4.755 1.804-4.755 1.804zm42.267 19.647V40.738s3.099-.506 6.192.422v3.829c-.623-.322-1.433-.463-2.43-.411v9.712s1.238-.19 2.43-.883v8.832a15.305 15.305 0 0 1-2.05-3h-.38v6.511h-3.762zm6.192-24.59c2.805.875 5.666 2.911 6.324 7.582 0 0 .339 5.174-4.946 8.32 0 0-.479 2.545 5.423 5.452v3.278s-3.709-.182-6.801-3.553v-8.832c1.235-.737 2.468-2.032 2.423-4.343 0 0 0-3.003-2.423-4.075V41.16zm7.85 11.09c1.57-12.203 13.858-11.878 13.858-11.878l.089 3.462c-8.994.142-9.807 7.766-9.807 7.766h9.807v3.564h-9.807c1.098 7.538 9.852 7.674 9.852 7.674v3.512c-14.562-.461-13.991-14.1-13.991-14.1zm-38.557 1.205c0 5.174 4.33 9.433 9.66 9.433v3.555c-7.283 0-13.185-5.821-13.185-12.895 0-7.168 5.902-12.995 13.185-12.995v3.422c-5.33 0-9.66 4.253-9.66 9.48zm9.66-9.48v-3.422h.05c7.333 0 13.238 5.827 13.238 12.995 0 7.074-5.905 12.895-13.237 12.895h-.051v-3.555c5.334 0 9.664-4.26 9.664-9.433 0-5.227-4.33-9.48-9.664-9.48zM172.005 52.48v1.845a4.891 4.891 0 0 0-1.569-.64s.811-.463 1.569-1.205zm-6.042-10.909s3.14-.375 6.042.693v3.886c-.52-.375-1.286-.648-2.284-.737v17.426s1.14-.047 2.284-.645v3.836c-.476.135-.998.19-1.569.231 0 0-2.286.272-4.332.182l-.14-24.872zm6.042.693c1.809.65 3.571 1.848 4.474 4.02 0 0 1.434 4.07-.663 7.03 0 0 1.808 1.245 1.903 4.578v.787c0 .648-.095 1.293-.24 2.035 0 0-.952 4.201-5.474 5.316v-3.836c1.243-.603 2.474-1.9 2.286-4.532 0 0-.332-2.125-2.286-3.337V52.48c.86-.785 1.715-1.936 1.572-3.233 0 0 .05-1.99-1.572-3.097v-3.886zM89.793 30.568c8.573 3.004 8.573-3.051 8.573-3.051v-8h5.044v2.496h38.273v-7.349h4.951v12.947h-43.128c-1.527 6.424-6.57 7.12-6.57 7.12-6.09.552-7.143-4.163-7.143-4.163zm35.516 4.626c-1.76 0-3.144-1.389-3.144-3.097 0-1.714 1.383-3.101 3.144-3.101 1.712 0 3.14 1.387 3.14 3.1 0 1.71-1.428 3.098-3.14 3.098zm6.756-.048c-1.714 0-3.14-1.341-3.14-3.052 0-1.663 1.426-3.099 3.14-3.099 1.763 0 3.193 1.436 3.193 3.099 0 1.71-1.43 3.052-3.193 3.052zm75.833-13.134c.382-1.382-1.24-2.4-1.24-2.4-2.571-1.487-7.046-1.806-7.046-1.806-6.184-.55-6.326-2.456-6.326-2.456-2.669-4.293-.332-7.065-.332-7.065 1.614 2.542 3.521 3.326 3.521 3.326 3.283 1.483 11.944 2.864 11.944 2.864 6.096 2.408 5.383 7.772 5.383 7.772h2.043v5.27h-50.598c-1.521 6.426-6.524 6.752-6.524 6.752-6.09.55-7.143-4.947-7.143-4.947 6.618 4.158 8.526-1.114 8.526-1.114v-8.922h5.042v2.597l42.75.129zm-5.568 13.134c-1.76 0-3.141-1.386-3.141-3.052 0-1.711 1.382-3.099 3.14-3.099 1.715 0 3.139 1.388 3.139 3.099 0 1.666-1.424 3.052-3.138 3.052zm19.803-7.628s-.142-.691-.142-1.806v-.088c0-3.194.903-9.715 7.854-13.041v6.007c-1.048 1.068-2.094 2.547-2.19 4.31h2.19v4.618h-7.712zm7.712-14.935c1.759-.88 3.904-1.526 6.57-1.846v12.062h14.471v-6.795h4.758v6.565h8.622v-6.982h4.754v6.982h41.468s1.235-1.153-.29-1.71h-31.137l.242-4.758s4.952-3.376 4.193-10.36h4.378s.142 6.197-2.243 10.36h26.472s5.286.413 4.617 6.42h9.189s.095-5.08 5.616-4.858h.24v3.753c-.099-.052-.193-.052-.24-.052 0 0-.331.094-.616 1.066h.857v5.088h-101.92V22.9h2.237v-6.109s-1.144.65-2.238 1.799v-6.007zm101.92 5.08c.9 0 4.135.286 5.044 3.795v6.06h-5.043V22.43h.855s-.196-.787-.855-1.014v-3.753zm-110.109-6.51c-1.765 0-3.14-1.393-3.14-3.1 0-1.714 1.375-3.053 3.14-3.053 1.714 0 3.138 1.34 3.138 3.053 0 1.707-1.424 3.1-3.138 3.1zm7.76 0c-1.713 0-3.142-1.393-3.142-3.1 0-1.714 1.429-3.053 3.142-3.053 1.76 0 3.145 1.34 3.145 3.053 0 1.707-1.385 3.1-3.145 3.1zm31.083 0c-1.758 0-3.141-1.348-3.141-3.1 0-1.668 1.383-3.053 3.141-3.053 1.712 0 3.143 1.385 3.143 3.053 0 1.752-1.431 3.1-3.143 3.1zm8.617 0c-1.762 0-3.192-1.348-3.192-3.1 0-1.668 1.43-3.053 3.192-3.053 1.713 0 3.14 1.385 3.14 3.053 0 1.752-1.427 3.1-3.14 3.1zM253.12 35.146c-1.764 0-3.184-1.386-3.184-3.052 0-1.711 1.42-3.099 3.184-3.099 1.714 0 3.143 1.388 3.143 3.099 0 1.666-1.43 3.052-3.143 3.052z" fill="#E20714" fill-rule="evenodd"/></svg>
