<svg viewBox="0 0 584 224" fill="none" xmlns="http://www.w3.org/2000/svg"><path fill-rule="evenodd" clip-rule="evenodd" d="M59.082 59.423c5.732 14.653 7.795 41.925 3.669 57.102-9.171 33.493-25.105 39.308-39.95 52.682C6.464 183.919 1.076 199.386.33 205.725c-2.579 21.049 10.719 20.119 11.235 11.687 1.662-26.515 2.12-38.61 25.907-54.485 52.332-34.831 44.708-68.383 23.845-108.854-9-17.445-4.356-24.48-.459-39.076C64.184 2.553 55.873-3.436 50.2 2.03c-5.16 5-3.67 22.736 1.088 39.541 1.548 5.408 5.732 12.444 7.795 17.852Z" fill="#F60"/><path fill-rule="evenodd" clip-rule="evenodd" d="M12.368 172.638c1.604-1.687 4.012-4.943 5.846-6.629 14.845-13.316 29.92-18.026 39.09-51.52 2.981-10.932 2.752-27.388.23-41.634-13.011-3.315-41.326 24.538-45.166 99.783Z" fill="#212121"/><path fill-rule="evenodd" clip-rule="evenodd" d="M78.283 44.943c-3.84.233-12.954.175-12.954 2.908 0 2.21 4.07 2.5 9.171 2.5 5.79-.233 22.067-1.57 28.487-1.163-5.617-3.78-18.743-4.245-24.704-4.245Z" fill="#F60"/><path fill-rule="evenodd" clip-rule="evenodd" d="M40.568 44.304s-7.68-7.56-14.73-11.281c-4.7-2.442-9.515-2.035-10.777 1.28-1.26 3.314 2.064 6.919 7.223 8.314 7.566 2.036 18.284 1.687 18.284 1.687Zm5.159-3.838s-2.179-13.898-6.821-23.027c-3.096-6.106-8.598-9.188-12.496-6.57-3.897 2.616-3.21 9.012 1.147 14.304 6.477 7.85 18.17 15.293 18.17 15.293Zm14.1-2.442s9.973-4.478 15.877-9.886c3.897-3.605 5.044-8.548 2.235-11.048-2.808-2.5-7.509-.698-10.49 3.78-4.527 6.629-7.622 17.154-7.622 17.154Zm-31.525 177.12c-.057-6.396-8.884-17.909-3.783-36.982-4.242 4.303-10.49 23.957-3.668 37.796 2.923 5.873 7.508 2.792 7.45-.814Z" fill="#212121"/><path d="M96.815 172.994v-95.2l18.632-4.08v34.272c5.35-4.805 11.968-7.208 19.856-7.208 5.531 0 10.382 1.224 14.552 3.672 4.262 2.358 7.571 5.667 9.928 9.928 2.358 4.171 3.536 9.067 3.536 14.688v43.928h-18.632v-41.208c0-4.624-1.314-8.25-3.944-10.88-2.629-2.72-6.21-4.08-10.744-4.08-3.173 0-5.984.635-8.432 1.904-2.448 1.179-4.488 2.902-6.12 5.168v49.096H96.815Zm115.162 1.36c-7.072 0-13.464-1.632-19.176-4.896-5.712-3.264-10.246-7.661-13.6-13.192-3.355-5.53-5.032-11.741-5.032-18.632 0-6.89 1.632-13.101 4.896-18.632 3.354-5.621 7.888-10.064 13.6-13.328 5.802-3.264 12.24-4.896 19.312-4.896 7.072 0 13.464 1.632 19.176 4.896 5.802 3.264 10.336 7.707 13.6 13.328 3.354 5.531 5.032 11.742 5.032 18.632 0 6.891-1.678 13.102-5.032 18.632-3.264 5.531-7.752 9.928-13.464 13.192-5.712 3.264-12.15 4.896-19.312 4.896Zm0-16.184c3.717 0 7.026-.906 9.928-2.72 2.992-1.813 5.349-4.261 7.072-7.344 1.813-3.173 2.72-6.664 2.72-10.472 0-3.898-.907-7.389-2.72-10.472-1.723-3.082-4.08-5.53-7.072-7.344-2.902-1.904-6.211-2.856-9.928-2.856-3.627 0-6.936.952-9.928 2.856-2.992 1.814-5.35 4.262-7.072 7.344-1.723 3.083-2.584 6.574-2.584 10.472 0 3.808.861 7.299 2.584 10.472 1.722 3.083 4.08 5.531 7.072 7.344 2.992 1.814 6.301 2.72 9.928 2.72Zm83.804 16.184c-7.072 0-13.464-1.632-19.176-4.896-5.712-3.264-10.245-7.661-13.6-13.192-3.354-5.53-5.032-11.741-5.032-18.632 0-6.89 1.632-13.101 4.896-18.632 3.355-5.621 7.888-10.064 13.6-13.328 5.803-3.264 12.24-4.896 19.312-4.896 7.072 0 13.464 1.632 19.176 4.896 5.803 3.264 10.336 7.707 13.6 13.328 3.355 5.531 5.032 11.742 5.032 18.632 0 6.891-1.677 13.102-5.032 18.632-3.264 5.531-7.752 9.928-13.464 13.192-5.712 3.264-12.149 4.896-19.312 4.896Zm0-16.184c3.718 0 7.027-.906 9.928-2.72 2.992-1.813 5.35-4.261 7.072-7.344 1.814-3.173 2.72-6.664 2.72-10.472 0-3.898-.906-7.389-2.72-10.472-1.722-3.082-4.08-5.53-7.072-7.344-2.901-1.904-6.21-2.856-9.928-2.856-3.626 0-6.936.952-9.928 2.856-2.992 1.814-5.349 4.262-7.072 7.344-1.722 3.083-2.584 6.574-2.584 10.472 0 3.808.862 7.299 2.584 10.472 1.723 3.083 4.08 5.531 7.072 7.344 2.992 1.814 6.302 2.72 9.928 2.72Zm49.261 42.568v-98.6h18.36v5.848c5.803-4.533 12.512-6.8 20.128-6.8 6.709 0 12.784 1.632 18.224 4.896 5.44 3.264 9.747 7.662 12.92 13.192 3.264 5.44 4.896 11.56 4.896 18.36 0 6.8-1.632 12.966-4.896 18.496-3.264 5.44-7.661 9.792-13.192 13.056-5.531 3.174-11.696 4.76-18.496 4.76-3.536 0-6.936-.453-10.2-1.36a36.238 36.238 0 0 1-9.112-4.216v32.368h-18.632Zm35.496-42.568c3.899 0 7.389-.906 10.472-2.72 3.173-1.813 5.667-4.261 7.48-7.344 1.813-3.082 2.72-6.573 2.72-10.472 0-3.898-.907-7.389-2.72-10.472-1.813-3.173-4.307-5.621-7.48-7.344-3.083-1.813-6.573-2.72-10.472-2.72-3.445 0-6.619.59-9.52 1.768-2.811 1.088-5.259 2.766-7.344 5.032v27.608c1.995 2.086 4.443 3.718 7.344 4.896 2.992 1.179 6.165 1.768 9.52 1.768Zm84.845 16.184c-7.072 0-13.464-1.632-19.176-4.896-5.712-3.264-10.246-7.661-13.6-13.192-3.355-5.53-5.032-11.741-5.032-18.632 0-6.89 1.632-13.101 4.896-18.632 3.354-5.621 7.888-10.064 13.6-13.328 5.802-3.264 12.24-4.896 19.312-4.896 7.072 0 13.464 1.632 19.176 4.896 5.802 3.264 10.336 7.707 13.6 13.328 3.354 5.531 5.032 11.742 5.032 18.632 0 6.891-1.678 13.102-5.032 18.632-3.264 5.531-7.752 9.928-13.464 13.192-5.712 3.264-12.15 4.896-19.312 4.896Zm0-16.184c3.717 0 7.026-.906 9.928-2.72 2.992-1.813 5.349-4.261 7.072-7.344 1.813-3.173 2.72-6.664 2.72-10.472 0-3.898-.907-7.389-2.72-10.472-1.723-3.082-4.08-5.53-7.072-7.344-2.902-1.904-6.211-2.856-9.928-2.856-3.627 0-6.936.952-9.928 2.856-2.992 1.814-5.35 4.262-7.072 7.344-1.723 3.083-2.584 6.574-2.584 10.472 0 3.808.861 7.299 2.584 10.472 1.722 3.083 4.08 5.531 7.072 7.344 2.992 1.814 6.301 2.72 9.928 2.72Zm83.94 16.184c-7.072 0-13.509-1.632-19.312-4.896-5.712-3.264-10.245-7.661-13.6-13.192-3.354-5.53-5.032-11.741-5.032-18.632 0-6.89 1.587-13.101 4.76-18.632 3.264-5.53 7.662-9.928 13.192-13.192 5.531-3.264 11.696-4.896 18.496-4.896 6.8 0 12.83 1.678 18.088 5.032 5.259 3.355 9.384 7.888 12.376 13.6 3.083 5.712 4.624 12.195 4.624 19.448v4.896h-52.496a21.798 21.798 0 0 0 3.944 7.616 19.965 19.965 0 0 0 6.936 5.304c2.811 1.27 5.803 1.904 8.976 1.904 3.174 0 6.075-.498 8.704-1.496 2.72-.997 5.032-2.402 6.936-4.216l12.24 11.152c-4.352 3.536-8.84 6.12-13.464 7.752-4.533 1.632-9.656 2.448-15.368 2.448Zm-19.176-43.792h34.408c-.634-2.81-1.813-5.258-3.536-7.344-1.632-2.176-3.626-3.853-5.984-5.032-2.266-1.269-4.805-1.904-7.616-1.904-2.901 0-5.53.59-7.888 1.768-2.357 1.179-4.352 2.856-5.984 5.032-1.541 2.086-2.674 4.579-3.4 7.48Z" fill="#212121"/><path d="M396.337 210.408c-2.178 0-4.156-.521-5.934-1.564a11.903 11.903 0 0 1-4.232-4.324c-1.043-1.809-1.564-3.833-1.564-6.072 0-2.238.521-4.247 1.564-6.026a11.919 11.919 0 0 1 4.232-4.324c1.778-1.073 3.756-1.61 5.934-1.61 1.686 0 3.312.322 4.876.966a12.33 12.33 0 0 1 4.14 2.668l-2.162 2.484a9.005 9.005 0 0 0-3.174-2.208 8.814 8.814 0 0 0-3.634-.782c-1.564 0-2.99.399-4.278 1.196-1.258.767-2.27 1.825-3.036 3.174-.736 1.319-1.104 2.806-1.104 4.462 0 1.656.368 3.159 1.104 4.508a8.862 8.862 0 0 0 3.082 3.22c1.288.767 2.714 1.15 4.278 1.15a8.618 8.618 0 0 0 3.542-.736c1.134-.49 2.192-1.211 3.174-2.162l2.116 2.3a13.63 13.63 0 0 1-4.14 2.714 12.237 12.237 0 0 1-4.784.966Zm20.656.046c-2.178 0-4.171-.521-5.98-1.564a11.903 11.903 0 0 1-4.232-4.324c-1.043-1.809-1.564-3.833-1.564-6.072 0-2.238.521-4.262 1.564-6.072a11.558 11.558 0 0 1 4.232-4.278c1.809-1.073 3.802-1.61 5.98-1.61 2.208 0 4.201.537 5.98 1.61a11.573 11.573 0 0 1 4.232 4.278c1.042 1.81 1.564 3.834 1.564 6.072 0 2.239-.522 4.263-1.564 6.072a11.92 11.92 0 0 1-4.232 4.324c-1.779 1.043-3.772 1.564-5.98 1.564Zm0-3.036c1.564 0 2.974-.398 4.232-1.196a8.506 8.506 0 0 0 3.036-3.22c.766-1.349 1.15-2.852 1.15-4.508 0-1.686-.384-3.189-1.15-4.508a8.52 8.52 0 0 0-3.036-3.22c-1.258-.797-2.668-1.196-4.232-1.196s-2.99.399-4.278 1.196c-1.258.798-2.27 1.871-3.036 3.22-.736 1.319-1.104 2.822-1.104 4.508 0 1.656.368 3.159 1.104 4.508.766 1.35 1.778 2.423 3.036 3.22 1.288.798 2.714 1.196 4.278 1.196Zm14.204 2.576v-23.046h3.404v2.53c1.748-1.993 4.002-2.99 6.762-2.99 1.626 0 3.067.384 4.324 1.15a7.777 7.777 0 0 1 2.944 3.036c.951-1.41 2.086-2.453 3.404-3.128 1.319-.705 2.822-1.058 4.508-1.058 1.687 0 3.159.384 4.416 1.15 1.258.736 2.239 1.779 2.944 3.128.736 1.319 1.104 2.868 1.104 4.646v14.582h-3.358v-13.892c0-2.054-.536-3.664-1.61-4.83-1.073-1.196-2.53-1.794-4.37-1.794a6.439 6.439 0 0 0-3.45.966c-1.042.614-1.932 1.549-2.668 2.806.062.338.108.69.138 1.058.062.338.092.706.092 1.104v14.582h-3.358v-13.892c0-2.054-.536-3.664-1.61-4.83-1.073-1.196-2.514-1.794-4.324-1.794-1.226 0-2.346.292-3.358.874-.981.552-1.824 1.38-2.53 2.484v17.158h-3.404Zm37.232 0v-23.046h3.404v2.53c1.748-1.993 4.002-2.99 6.762-2.99 1.625 0 3.066.384 4.324 1.15a7.79 7.79 0 0 1 2.944 3.036c.95-1.41 2.085-2.453 3.404-3.128 1.318-.705 2.821-1.058 4.508-1.058 1.686 0 3.158.384 4.416 1.15 1.257.736 2.238 1.779 2.944 3.128.736 1.319 1.104 2.868 1.104 4.646v14.582h-3.358v-13.892c0-2.054-.537-3.664-1.61-4.83-1.074-1.196-2.53-1.794-4.37-1.794a6.434 6.434 0 0 0-3.45.966c-1.043.614-1.932 1.549-2.668 2.806.061.338.107.69.138 1.058.061.338.092.706.092 1.104v14.582h-3.358v-13.892c0-2.054-.537-3.664-1.61-4.83-1.074-1.196-2.515-1.794-4.324-1.794-1.227 0-2.346.292-3.358.874-.982.552-1.825 1.38-2.53 2.484v17.158h-3.404Zm48.041.414c-2.208 0-4.217-.521-6.026-1.564a12.28 12.28 0 0 1-4.278-4.324c-1.043-1.809-1.564-3.833-1.564-6.072 0-2.208.506-4.201 1.518-5.98 1.012-1.809 2.377-3.235 4.094-4.278 1.717-1.073 3.634-1.61 5.75-1.61 2.055 0 3.895.537 5.52 1.61 1.656 1.043 2.959 2.469 3.91 4.278.981 1.779 1.472 3.772 1.472 5.98v1.058H507.96c.184 1.503.659 2.852 1.426 4.048a8.862 8.862 0 0 0 3.082 2.852c1.257.675 2.637 1.012 4.14 1.012 1.196 0 2.361-.184 3.496-.552 1.135-.368 2.085-.889 2.852-1.564l2.116 2.254c-1.288.951-2.637 1.672-4.048 2.162-1.38.46-2.898.69-4.554.69Zm-8.418-13.616h15.41c-.184-1.38-.644-2.606-1.38-3.68-.705-1.104-1.595-1.962-2.668-2.576a6.755 6.755 0 0 0-3.542-.966c-1.319 0-2.53.307-3.634.92-1.104.614-2.024 1.472-2.76 2.576-.736 1.074-1.211 2.316-1.426 3.726Zm21.273 13.202v-23.046h3.404v3.266c.705-1.196 1.594-2.116 2.668-2.76 1.104-.674 2.361-1.012 3.772-1.012.797 0 1.518.108 2.162.322v3.128a5.852 5.852 0 0 0-1.196-.322 7.907 7.907 0 0 0-1.196-.092c-1.411 0-2.653.414-3.726 1.242-1.043.798-1.871 1.963-2.484 3.496v15.778h-3.404Zm22.657.414c-2.177 0-4.155-.521-5.934-1.564a11.911 11.911 0 0 1-4.232-4.324c-1.043-1.809-1.564-3.833-1.564-6.072 0-2.238.521-4.247 1.564-6.026a11.927 11.927 0 0 1 4.232-4.324c1.779-1.073 3.757-1.61 5.934-1.61 1.687 0 3.312.322 4.876.966a12.33 12.33 0 0 1 4.14 2.668l-2.162 2.484a9.005 9.005 0 0 0-3.174-2.208 8.81 8.81 0 0 0-3.634-.782c-1.564 0-2.99.399-4.278 1.196-1.257.767-2.269 1.825-3.036 3.174-.736 1.319-1.104 2.806-1.104 4.462 0 1.656.368 3.159 1.104 4.508a8.87 8.87 0 0 0 3.082 3.22c1.288.767 2.714 1.15 4.278 1.15a8.618 8.618 0 0 0 3.542-.736c1.135-.49 2.193-1.211 3.174-2.162l2.116 2.3a13.63 13.63 0 0 1-4.14 2.714 12.234 12.234 0 0 1-4.784.966Zm20.748 0c-2.208 0-4.217-.521-6.026-1.564a12.28 12.28 0 0 1-4.278-4.324c-1.043-1.809-1.564-3.833-1.564-6.072 0-2.208.506-4.201 1.518-5.98 1.012-1.809 2.377-3.235 4.094-4.278 1.717-1.073 3.634-1.61 5.75-1.61 2.055 0 3.895.537 5.52 1.61 1.656 1.043 2.959 2.469 3.91 4.278.981 1.779 1.472 3.772 1.472 5.98v1.058H564.22c.184 1.503.659 2.852 1.426 4.048a8.862 8.862 0 0 0 3.082 2.852c1.257.675 2.637 1.012 4.14 1.012 1.196 0 2.361-.184 3.496-.552 1.135-.368 2.085-.889 2.852-1.564l2.116 2.254c-1.288.951-2.637 1.672-4.048 2.162-1.38.46-2.898.69-4.554.69Zm-8.418-13.616h15.41c-.184-1.38-.644-2.606-1.38-3.68-.705-1.104-1.595-1.962-2.668-2.576a6.755 6.755 0 0 0-3.542-.966c-1.319 0-2.53.307-3.634.92-1.104.614-2.024 1.472-2.76 2.576-.736 1.074-1.211 2.316-1.426 3.726Z" fill="#606F7B"/></svg>
