<svg xmlns="http://www.w3.org/2000/svg" width="739" height="224" fill="none"><path fill="#F60" fill-rule="evenodd" d="M59.082 59.423c5.732 14.653 7.795 41.925 3.669 57.102-9.171 33.493-25.105 39.308-39.95 52.682C6.464 183.919 1.076 199.386.33 205.725c-2.579 21.049 10.719 20.119 11.235 11.687 1.662-26.515 2.12-38.61 25.907-54.485 52.332-34.831 44.708-68.383 23.845-108.854-9-17.445-4.356-24.48-.459-39.076C64.184 2.553 55.873-3.436 50.2 2.03c-5.16 5-3.67 22.736 1.088 39.541 1.548 5.408 5.732 12.444 7.795 17.852Z" clip-rule="evenodd"/><path fill="#212121" fill-rule="evenodd" d="M12.368 172.638c1.604-1.687 4.012-4.943 5.846-6.629 14.845-13.316 29.92-18.026 39.09-51.52 2.981-10.932 2.752-27.388.23-41.634-13.011-3.315-41.326 24.538-45.166 99.783Z" clip-rule="evenodd"/><path fill="#F60" fill-rule="evenodd" d="M78.283 44.943c-3.84.233-12.954.175-12.954 2.908 0 2.21 4.07 2.5 9.171 2.5 5.79-.232 22.067-1.57 28.487-1.163-5.617-3.78-18.743-4.245-24.704-4.245Z" clip-rule="evenodd"/><path fill="#212121" fill-rule="evenodd" d="M40.568 44.304s-7.68-7.56-14.73-11.281c-4.7-2.443-9.515-2.036-10.777 1.279-1.26 3.315 2.064 6.92 7.223 8.315 7.566 2.036 18.284 1.687 18.284 1.687Zm5.159-3.838s-2.179-13.898-6.821-23.027c-3.096-6.106-8.598-9.188-12.496-6.57-3.897 2.616-3.21 9.012 1.147 14.304 6.477 7.85 18.17 15.293 18.17 15.293Zm14.1-2.443s9.973-4.477 15.877-9.885c3.897-3.605 5.044-8.548 2.235-11.048-2.808-2.5-7.509-.698-10.49 3.78-4.527 6.629-7.622 17.153-7.622 17.153ZM28.302 215.144c-.057-6.396-8.884-17.91-3.783-36.982-4.242 4.303-10.49 23.957-3.668 37.796 2.923 5.873 7.508 2.791 7.45-.814Z" clip-rule="evenodd"/><path fill="#212121" d="M105.778 167V64.8h15.33v43.8h54.312V64.8h15.33V167h-15.33v-44.53h-54.312V167h-15.33Zm154.557 1.606c-7.397 0-14.308-1.314-20.732-3.942-6.424-2.725-12.118-6.473-17.082-11.242a53.412 53.412 0 0 1-11.388-16.79c-2.628-6.424-3.942-13.335-3.942-20.732 0-7.397 1.314-14.259 3.942-20.586 2.725-6.424 6.521-12.02 11.388-16.79a52.656 52.656 0 0 1 17.082-11.242c6.424-2.725 13.335-4.088 20.732-4.088 7.397 0 14.308 1.363 20.732 4.088 6.521 2.628 12.215 6.375 17.082 11.242 4.867 4.77 8.663 10.366 11.388 16.79 2.725 6.327 4.088 13.189 4.088 20.586 0 7.397-1.363 14.308-4.088 20.732a53.412 53.412 0 0 1-11.388 16.79c-4.867 4.769-10.561 8.517-17.082 11.242-6.424 2.628-13.335 3.942-20.732 3.942Zm.146-14.162c5.256 0 10.123-.973 14.6-2.92 4.575-1.947 8.565-4.623 11.972-8.03 3.407-3.504 6.083-7.592 8.03-12.264 1.947-4.769 2.92-9.879 2.92-15.33 0-5.548-.973-10.658-2.92-15.33-1.947-4.672-4.623-8.711-8.03-12.118-3.407-3.504-7.397-6.23-11.972-8.176-4.477-1.947-9.344-2.92-14.6-2.92-5.353 0-10.317.973-14.892 2.92-4.575 1.947-8.565 4.672-11.972 8.176-3.407 3.407-6.083 7.446-8.03 12.118-1.849 4.672-2.774 9.733-2.774 15.184 0 5.548.925 10.707 2.774 15.476 1.947 4.672 4.623 8.76 8.03 12.264 3.407 3.407 7.397 6.083 11.972 8.03 4.575 1.947 9.539 2.92 14.892 2.92Zm118.051 14.162c-7.397 0-14.308-1.314-20.732-3.942-6.424-2.725-12.118-6.473-17.082-11.242a53.445 53.445 0 0 1-11.388-16.79c-2.628-6.424-3.942-13.335-3.942-20.732 0-7.397 1.314-14.259 3.942-20.586 2.726-6.424 6.522-12.02 11.388-16.79A52.656 52.656 0 0 1 357.8 67.282c6.424-2.725 13.335-4.088 20.732-4.088 7.398 0 14.308 1.363 20.732 4.088 6.522 2.628 12.216 6.375 17.082 11.242 4.867 4.77 8.663 10.366 11.388 16.79 2.726 6.327 4.088 13.189 4.088 20.586 0 7.397-1.362 14.308-4.088 20.732a53.412 53.412 0 0 1-11.388 16.79c-4.866 4.769-10.56 8.517-17.082 11.242-6.424 2.628-13.334 3.942-20.732 3.942Zm.146-14.162c5.256 0 10.123-.973 14.6-2.92 4.575-1.947 8.566-4.623 11.972-8.03 3.407-3.504 6.084-7.592 8.03-12.264 1.947-4.769 2.92-9.879 2.92-15.33 0-5.548-.973-10.658-2.92-15.33-1.946-4.672-4.623-8.711-8.03-12.118-3.406-3.504-7.397-6.23-11.972-8.176-4.477-1.947-9.344-2.92-14.6-2.92-5.353 0-10.317.973-14.892 2.92-4.574 1.947-8.565 4.672-11.972 8.176-3.406 3.407-6.083 7.446-8.03 12.118-1.849 4.672-2.774 9.733-2.774 15.184 0 5.548.925 10.707 2.774 15.476 1.947 4.672 4.624 8.76 8.03 12.264 3.407 3.407 7.398 6.083 11.972 8.03 4.575 1.947 9.539 2.92 14.892 2.92ZM447.966 167V64.8h47.304c6.716 0 12.556 1.314 17.52 3.942 4.964 2.53 8.857 6.083 11.68 10.658 2.822 4.575 4.234 9.88 4.234 15.914 0 6.035-1.412 11.339-4.234 15.914-2.823 4.575-6.765 8.176-11.826 10.804-4.964 2.531-10.756 3.796-17.374 3.796h-31.974V167h-15.33Zm15.33-54.166h30.368c6.034 0 10.804-1.557 14.308-4.672 3.601-3.212 5.402-7.446 5.402-12.702s-1.801-9.441-5.402-12.556c-3.504-3.115-8.274-4.672-14.308-4.672h-30.368v34.602Zm129.959 55.772c-7.397 0-14.308-1.314-20.732-3.942-6.424-2.725-12.118-6.473-17.082-11.242a53.412 53.412 0 0 1-11.388-16.79c-2.628-6.424-3.942-13.335-3.942-20.732 0-7.397 1.314-14.259 3.942-20.586 2.725-6.424 6.521-12.02 11.388-16.79a52.656 52.656 0 0 1 17.082-11.242c6.424-2.725 13.335-4.088 20.732-4.088 7.397 0 14.308 1.363 20.732 4.088 6.521 2.628 12.215 6.375 17.082 11.242 4.867 4.77 8.663 10.366 11.388 16.79 2.725 6.327 4.088 13.189 4.088 20.586 0 7.397-1.363 14.308-4.088 20.732a53.412 53.412 0 0 1-11.388 16.79c-4.867 4.769-10.561 8.517-17.082 11.242-6.424 2.628-13.335 3.942-20.732 3.942Zm.146-14.162c5.256 0 10.123-.973 14.6-2.92 4.575-1.947 8.565-4.623 11.972-8.03 3.407-3.504 6.083-7.592 8.03-12.264 1.947-4.769 2.92-9.879 2.92-15.33 0-5.548-.973-10.658-2.92-15.33-1.947-4.672-4.623-8.711-8.03-12.118-3.407-3.504-7.397-6.23-11.972-8.176-4.477-1.947-9.344-2.92-14.6-2.92-5.353 0-10.317.973-14.892 2.92-4.575 1.947-8.565 4.672-11.972 8.176-3.407 3.407-6.083 7.446-8.03 12.118-1.849 4.672-2.774 9.733-2.774 15.184 0 5.548.925 10.707 2.774 15.476 1.947 4.672 4.623 8.76 8.03 12.264 3.407 3.407 7.397 6.083 11.972 8.03 4.575 1.947 9.539 2.92 14.892 2.92ZM662.688 167V64.8h75.336v13.432h-60.006v30.66h39.42v12.994h-39.42v31.682h60.59V167h-75.92Z"/></svg>
