<svg xmlns="http://www.w3.org/2000/svg" viewBox="0 0 1013.37 383.47"><text transform="translate(181.67 273.14)" font-size="220" fill="#212121" font-family="OpenSans-SemiBold,Open Sans" font-weight="600" letter-spacing="-.089em">HOOPOE</text><path d="M103.12 102.18c10 25.24 13.62 72.09 6.38 98.16-16 57.57-43.82 67.61-69.67 90.58-28.46 25.27-37.9 51.87-39.25 62.84-4.51 36.17 18.69 34.65 19.61 20.06 2.94-45.61 3.66-66.41 45.25-93.71 91.3-59.92 78-117.65 41.56-187.25-15.7-30-7.59-42.09-.77-67.2 5.76-21.31-8.77-31.57-18.64-22.15-9 8.57-6.37 39.13 1.93 68 2.68 9.26 9.96 21.4 13.6 30.67z" fill="#f60" fill-rule="evenodd"/><path d="M21.63 296.87c2.77-2.89 7-8.54 10.19-11.42 25.86-22.94 52.17-31.04 68.17-88.62 5.2-18.76 4.75-47.1.39-71.59-22.72-5.68-72.12 42.3-78.75 171.63z" fill="#212121" fill-rule="evenodd"/><path d="M136.61 77.34c-6.72.44-22.56.27-22.62 5 0 3.75 7.06 4.27 16 4.27 10.07-.36 38.54-2.74 49.72-2-9.85-6.54-32.72-7.27-43.1-7.27z" fill="#f60" fill-rule="evenodd"/><path d="M70.77 76.16s-13.41-13-25.69-19.44c-8.17-4.21-16.63-3.45-18.8 2.16s3.59 11.92 12.57 14.31c13.29 3.58 31.92 2.97 31.92 2.97zm9-6.54S75.92 45.77 67.88 30c-5.35-10.49-15-15.81-21.75-11.34s-5.64 15.5 2 24.58c11.29 13.55 31.62 26.38 31.62 26.38zm24.63-4.21s17.39-7.71 27.68-17c6.84-6.2 8.79-14.65 3.9-19s-13.08-1.22-18.33 6.46c-7.89 11.43-13.25 29.54-13.25 29.54zm-55 304.58c-.13-11-15.48-30.77-6.6-63.61-7.4 7.37-18.29 41.21-6.44 64.95 5.09 10.18 13.11 4.9 13-1.34z" fill="#212121" fill-rule="evenodd"/></svg>
